<svg width="40" height="40" viewBox="0 0 40 40" fill="none" xmlns="http://www.w3.org/2000/svg">
<path d="M12 12V11C11.4477 11 11 11.4477 11 12H12ZM28 12H29C29 11.4477 28.5523 11 28 11V12ZM28 28V29C28.5523 29 29 28.5523 29 28H28ZM12 28H11C11 28.5523 11.4477 29 12 29V28ZM11 0V5.33333H13V0H11ZM27 0V5.33333H29V0H27ZM0 13H5.33333V11H0V13ZM0 29H5.33333V27H0V29ZM34.6667 13H40V11H34.6667V13ZM34.6667 29H40V27H34.6667V29ZM11 34.6667V40H13V34.6667H11ZM27 34.6667V40H29V34.6667H27ZM12 13H28V11H12V13ZM27 12V28H29V12H27ZM28 27H12V29H28V27ZM13 28V12H11V28H13Z" fill="#5156BE"/>
</svg>
