<svg width="40" height="40" viewBox="0 0 40 40" fill="none" xmlns="http://www.w3.org/2000/svg">
<path d="M12 20L22.6667 20M29.3333 10.6667L22.6667 19.9878L29.3333 29.3333M38.6667 6.6632C38.6667 9.60528 36.2773 11.9931 33.3333 11.9931C30.3893 11.9931 28 9.60528 28 6.6632C28 3.72112 30.3893 1.33334 33.3333 1.33334C36.2773 1.33334 38.6667 3.72112 38.6667 6.6632ZM38.6667 33.3125C38.6667 36.2545 36.2773 38.6423 33.3333 38.6423C30.3893 38.6423 28 36.2545 28 33.3125C28 30.3704 30.3893 27.9826 33.3333 27.9826C36.2773 27.9826 38.6667 30.3704 38.6667 33.3125ZM12 19.9878C12 22.9299 9.61066 25.3177 6.66666 25.3177C3.72266 25.3177 1.33333 22.9299 1.33333 19.9878C1.33333 17.0457 3.72266 14.658 6.66666 14.658C9.61066 14.658 12 17.0457 12 19.9878Z" stroke="#5156BE" stroke-width="2" stroke-linecap="square"/>
</svg>
