<svg width="40" height="40" viewBox="0 0 40 40" fill="none" xmlns="http://www.w3.org/2000/svg">
<path d="M14.6666 1.33334H3.99998C2.52722 1.33334 1.33331 2.52725 1.33331 4.00001V14.6667C1.33331 16.1394 2.52722 17.3333 3.99998 17.3333H14.6666C16.1394 17.3333 17.3333 16.1394 17.3333 14.6667V4.00001C17.3333 2.52725 16.1394 1.33334 14.6666 1.33334Z" stroke="#5156BE" stroke-width="2"/>
<path d="M36 1.33334H25.3333C23.8606 1.33334 22.6666 2.52725 22.6666 4.00001V14.6667C22.6666 16.1394 23.8606 17.3333 25.3333 17.3333H36C37.4727 17.3333 38.6666 16.1394 38.6666 14.6667V4.00001C38.6666 2.52725 37.4727 1.33334 36 1.33334Z" stroke="#5156BE" stroke-width="2"/>
<path d="M36 22.6667H25.3333C23.8606 22.6667 22.6666 23.8606 22.6666 25.3333V36C22.6666 37.4728 23.8606 38.6667 25.3333 38.6667H36C37.4727 38.6667 38.6666 37.4728 38.6666 36V25.3333C38.6666 23.8606 37.4727 22.6667 36 22.6667Z" stroke="#5156BE" stroke-width="2"/>
<path d="M14.6666 22.6667H3.99998C2.52722 22.6667 1.33331 23.8606 1.33331 25.3333V36C1.33331 37.4728 2.52722 38.6667 3.99998 38.6667H14.6666C16.1394 38.6667 17.3333 37.4728 17.3333 36V25.3333C17.3333 23.8606 16.1394 22.6667 14.6666 22.6667Z" stroke="#5156BE" stroke-width="2"/>
</svg>
