<svg width="30" height="28" viewBox="0 0 30 28" fill="none" xmlns="http://www.w3.org/2000/svg">
<path d="M15 2.79999L15.3939 1.88084C15.1424 1.77304 14.8576 1.77304 14.6061 1.88084L15 2.79999ZM1.93335 8.39999L1.53943 7.48084C1.17175 7.63842 0.93335 7.99996 0.93335 8.39999C0.93335 8.80002 1.17175 9.16155 1.53943 9.31913L1.93335 8.39999ZM15 14L14.6061 14.9191C14.8576 15.0269 15.1424 15.0269 15.3939 14.9191L15 14ZM28.0667 8.39999L28.4606 9.31913C28.8283 9.16155 29.0667 8.80002 29.0667 8.39999C29.0667 7.99996 28.8283 7.63842 28.4606 7.48084L28.0667 8.39999ZM15 19.6L14.6061 20.5191L15 20.688L15.3939 20.5191L15 19.6ZM15 25.2L14.6061 26.1191L15 26.288L15.3939 26.1191L15 25.2ZM14.6061 1.88084L1.53943 7.48084L2.32727 9.31913L15.3939 3.71913L14.6061 1.88084ZM1.53943 9.31913L14.6061 14.9191L15.3939 13.0808L2.32727 7.48084L1.53943 9.31913ZM15.3939 14.9191L28.4606 9.31913L27.6728 7.48084L14.6061 13.0808L15.3939 14.9191ZM28.4606 7.48084L15.3939 1.88084L14.6061 3.71913L27.6728 9.31913L28.4606 7.48084ZM1.53943 14.9191L14.6061 20.5191L15.3939 18.6808L2.32727 13.0808L1.53943 14.9191ZM15.3939 20.5191L28.4606 14.9191L27.6728 13.0808L14.6061 18.6808L15.3939 20.5191ZM1.53943 20.5191L14.6061 26.1191L15.3939 24.2808L2.32727 18.6808L1.53943 20.5191ZM15.3939 26.1191L28.4606 20.5191L27.6728 18.6808L14.6061 24.2808L15.3939 26.1191Z" fill="white"/>
</svg>
